<?xml version="1.0" ?><svg enable-background="new 0 0 64 64" version="1.1" viewBox="0 0 64 64" xml:space="preserve" xmlns="http://www.w3.org/2000/svg" xmlns:xlink="http://www.w3.org/1999/xlink"><g id="Grid"/><g id="row_3"><g id="templet_x5F_tooling"><rect fill="#FFECB3" height="48" width="30" x="9" y="5"/><g><rect fill="#01579B" height="2" width="22" x="12" y="42"/><rect fill="#01579B" height="2" width="24" x="12" y="37"/><rect fill="#01579B" height="2" width="23" x="12" y="32"/><rect fill="#01579B" height="2" width="20" x="12" y="27"/><rect fill="#01579B" height="2" width="23" x="12" y="22"/><rect fill="#01579B" height="2" width="22" x="12" y="17"/><rect fill="#01579B" height="2" width="24" x="12" y="12"/></g><rect fill="#263238" height="46" width="30" x="19" y="9"/><rect fill="#FFECB3" height="48" width="30" x="25" y="11"/><g><rect fill="#F44336" height="2" width="22" x="28" y="48"/><rect fill="#F44336" height="2" width="24" x="28" y="43"/><rect fill="#F44336" height="2" width="23" x="28" y="38"/><rect fill="#F44336" height="2" width="20" x="28" y="33"/><rect fill="#F44336" height="2" width="23" x="28" y="28"/><rect fill="#F44336" height="2" width="22" x="28" y="23"/><rect fill="#F44336" height="2" width="24" x="28" y="18"/></g><rect fill="#263238" height="56" width="1" x="31" y="4"/><polygon fill="#FFC107" points="52,9 46,9 49,15   "/><polygon fill="#FFC107" points="59,22 59,16 53,19   "/></g></g><g id="row_2"/><g id="row_1"/></svg>