<?xml version="1.0" encoding="utf-8"?>
<!-- Generator: Adobe Illustrator 21.1.0, SVG Export Plug-In . SVG Version: 6.00 Build 0)  -->
<svg version="1.1" id="Layer_1" xmlns="http://www.w3.org/2000/svg" xmlns:xlink="http://www.w3.org/1999/xlink" x="0px" y="0px"
	 viewBox="0 0 512 512" style="enable-background:new 0 0 512 512;" xml:space="preserve">
<style type="text/css">
	.st0{fill:#225070;}
	.st1{fill:#7F7F7F;}
	.st2{enable-background:new    ;}
	.st3{fill:#CEC8C8;}
	.st4{clip-path:url(#SVGID_2_);fill:#ABC8E9;}
	.st5{clip-path:url(#SVGID_4_);fill:#E6E6E6;}
	.st6{clip-path:url(#SVGID_6_);}
	.st7{fill:#F5FAF4;}
	.st8{fill:#5226EF;}
	.st9{clip-path:url(#SVGID_8_);fill:#2D195E;}
	.st10{clip-path:url(#SVGID_10_);}
	.st11{fill:#D51920;}
	.st12{clip-path:url(#SVGID_12_);}
	.st13{fill:#EFD93F;}
	.st14{clip-path:url(#SVGID_14_);}
	.st15{fill:#8DC63F;}
	.st16{opacity:0.5;clip-path:url(#SVGID_22_);}
	.st17{fill:#5B388E;}
	.st18{clip-path:url(#SVGID_22_);fill:#D685D0;}
	.st19{clip-path:url(#SVGID_22_);fill:#EA7DA2;}
	.st20{opacity:0.5;clip-path:url(#SVGID_24_);}
	.st21{fill:#8299CE;}
	.st22{fill:#FFCCF8;}
	.st23{opacity:0.5;clip-path:url(#SVGID_26_);}
	.st24{opacity:0.5;clip-path:url(#SVGID_28_);}
	.st25{opacity:0.5;clip-path:url(#SVGID_30_);}
	.st26{opacity:0.5;clip-path:url(#SVGID_32_);}
	.st27{opacity:0.5;clip-path:url(#SVGID_34_);}
	.st28{opacity:0.5;clip-path:url(#SVGID_36_);}
	.st29{opacity:0.5;clip-path:url(#SVGID_38_);}
	.st30{opacity:0.5;clip-path:url(#SVGID_40_);}
	.st31{opacity:0.5;clip-path:url(#SVGID_42_);}
	.st32{opacity:0.5;clip-path:url(#SVGID_44_);}
	.st33{opacity:0.5;clip-path:url(#SVGID_46_);}
	.st34{fill:#784FA3;}
	.st35{opacity:0.2;clip-path:url(#SVGID_48_);fill:#ABC8E9;enable-background:new    ;}
	.st36{opacity:0.2;clip-path:url(#SVGID_50_);fill:#ABC8E9;enable-background:new    ;}
</style>
<g id="Layer_1_1_">
	<ellipse class="st0" cx="252" cy="257.6" rx="239" ry="234.6"/>
</g>
<g id="Layer_2">
	<g id="Favorite">
	</g>
	<g>
		<path d="M305.7,473.2c-16.7,3.6-34.1,5.5-51.9,5.5c-18.5,0-36.4-2.1-53.7-6l10.2-51.2h85.2L305.7,473.2z"/>
		<path class="st1" d="M495.5,128.5v303.2c0,5-4.1,9.1-9,9.1H21.2c-5,0-9.1-4.1-9.1-9.1V128.5c0-5,4.1-9,9.1-9h465.3
			C491.4,119.5,495.5,123.5,495.5,128.5z"/>
		<path class="st2" d="M495.5,430.4v1.3c0,5-4.1,9.1-9,9.1H21.2c-5,0-9.1-4.1-9.1-9.1v-1.3H495.5z"/>
		<path class="st3" d="M262.9,130.5c0,3.3-2.9,5.9-6.5,5.9h-5.2c-3.6,0-6.5-2.6-6.5-5.9l0,0c0-3.3,2.9-5.9,6.5-5.9h5.2
			C260,124.6,262.9,127.2,262.9,130.5L262.9,130.5z"/>
		<g>
			<g>
				<g>
					<defs>
						<path id="SVGID_1_" d="M472.8,149.1v262c0,4.3-3.7,7.8-8.2,7.8H43c-4.5,0-8.2-3.5-8.2-7.8v-262c0-4.3,3.7-7.8,8.2-7.8h421.5
							c1.2,0,2.3,0.2,3.3,0.7C470.7,143.2,472.8,145.9,472.8,149.1z"/>
					</defs>
					<clipPath id="SVGID_2_">
						<use xlink:href="#SVGID_1_"  style="overflow:visible;"/>
					</clipPath>
					<path class="st4" d="M472.8,149.1v262c0,4.3-3.7,7.8-8.2,7.8H43c-4.5,0-8.2-3.5-8.2-7.8v-262c0-4.3,3.7-7.8,8.2-7.8h421.5
						c1.2,0,2.3,0.2,3.3,0.7C470.7,143.2,472.8,145.9,472.8,149.1z"/>
				</g>
			</g>
			<g>
				<g>
					<defs>
						<path id="SVGID_3_" d="M472.8,149.1v262c0,4.3-3.7,7.8-8.2,7.8H43c-4.5,0-8.2-3.5-8.2-7.8v-262c0-4.3,3.7-7.8,8.2-7.8h421.5
							c1.2,0,2.3,0.2,3.3,0.7C470.7,143.2,472.8,145.9,472.8,149.1z"/>
					</defs>
					<clipPath id="SVGID_4_">
						<use xlink:href="#SVGID_3_"  style="overflow:visible;"/>
					</clipPath>
					<path class="st5" d="M277.2,446.5c0,2.7-0.8,5-1.8,5h-44.9c-1,0-1.8-2.2-1.8-5l0,0c0-2.7,0.8-5,1.8-5h44.9
						C276.4,441.5,277.2,443.8,277.2,446.5L277.2,446.5z"/>
				</g>
			</g>
			<g>
				<g>
					<defs>
						<path id="SVGID_5_" d="M472.8,149.1v262c0,4.3-3.7,7.8-8.2,7.8H43c-4.5,0-8.2-3.5-8.2-7.8v-262c0-4.3,3.7-7.8,8.2-7.8h421.5
							c1.2,0,2.3,0.2,3.3,0.7C470.7,143.2,472.8,145.9,472.8,149.1z"/>
					</defs>
					<clipPath id="SVGID_6_">
						<use xlink:href="#SVGID_5_"  style="overflow:visible;"/>
					</clipPath>
					<g class="st6">
						<path class="st7" d="M83.1,456.5c-2.8,0-5.1-2.3-5.1-5.1V169.3c0-2.8,2.3-5.1,5.1-5.1h345.5c2.8,0,5.1,2.3,5.1,5.1v282.1
							c0,2.8-2.3,5.1-5.1,5.1H83.1z"/>
						<path class="st8" d="M428.6,167c1.3,0,2.3,1,2.3,2.3v282.1c0,1.3-1,2.3-2.3,2.3H83.1c-1.3,0-2.3-1-2.3-2.3V169.3
							c0-1.3,1-2.3,2.3-2.3L428.6,167 M428.6,161.3H83.1c-4.4,0-8,3.6-8,8v282.1c0,4.4,3.6,8,8,8h345.5c4.4,0,8-3.6,8-8V169.3
							C436.6,164.9,433,161.3,428.6,161.3L428.6,161.3z"/>
					</g>
				</g>
			</g>
			<g>
				<g>
					<defs>
						<path id="SVGID_7_" d="M472.8,149.1v262c0,4.3-3.7,7.8-8.2,7.8H43c-4.5,0-8.2-3.5-8.2-7.8v-262c0-4.3,3.7-7.8,8.2-7.8h421.5
							c1.2,0,2.3,0.2,3.3,0.7C470.7,143.2,472.8,145.9,472.8,149.1z"/>
					</defs>
					<clipPath id="SVGID_8_">
						<use xlink:href="#SVGID_7_"  style="overflow:visible;"/>
					</clipPath>
					<path class="st9" d="M436.6,169.3v30H75.1v-30c0-4.4,3.6-8,8-8h345.5C433,161.3,436.6,164.9,436.6,169.3z"/>
				</g>
			</g>
			<g>
				<g>
					<defs>
						<path id="SVGID_9_" d="M154.1,149.1v262c0,4.3-3.7,7.8-8.2,7.8h-421.5c-4.5,0-8.2-3.5-8.2-7.8v-262c0-4.3,3.7-7.8,8.2-7.8
							h421.5c1.2,0,2.3,0.2,3.3,0.7C152,143.2,154.1,145.9,154.1,149.1z"/>
					</defs>
					<clipPath id="SVGID_10_">
						<use xlink:href="#SVGID_9_"  style="overflow:visible;"/>
					</clipPath>
					<g class="st10">
						<path class="st11" d="M106,184.2c0,3.5-2.8,6.3-6.3,6.3h-7.3c-3.5,0-6.3-2.8-6.3-6.3V177c0-3.5,2.8-6.3,6.3-6.3h7.3
							c3.5,0,6.3,2.8,6.3,6.3V184.2z"/>
					</g>
				</g>
			</g>
			<g>
				<g>
					<defs>
						<path id="SVGID_11_" d="M212.3,149.1v262c0,4.3-3.7,7.8-8.2,7.8h-421.5c-4.5,0-8.2-3.5-8.2-7.8v-262c0-4.3,3.7-7.8,8.2-7.8
							h421.5c1.2,0,2.3,0.2,3.3,0.7C210.2,143.2,212.3,145.9,212.3,149.1z"/>
					</defs>
					<clipPath id="SVGID_12_">
						<use xlink:href="#SVGID_11_"  style="overflow:visible;"/>
					</clipPath>
					<g class="st12">
						<path class="st13" d="M131.3,184.2c0,3.5-2.8,6.3-6.3,6.3h-7.3c-3.5,0-6.3-2.8-6.3-6.3v-7.3c0-3.5,2.8-6.3,6.3-6.3h7.3
							c3.5,0,6.3,2.8,6.3,6.3V184.2z"/>
					</g>
				</g>
			</g>
			<g>
				<g>
					<defs>
						<path id="SVGID_13_" d="M271,149.1v262c0,4.3-3.7,7.8-8.2,7.8h-421.5c-4.5,0-8.2-3.5-8.2-7.8v-262c0-4.3,3.7-7.8,8.2-7.8
							h421.5c1.2,0,2.3,0.2,3.3,0.7C269,143.2,271,145.9,271,149.1z"/>
					</defs>
					<clipPath id="SVGID_14_">
						<use xlink:href="#SVGID_13_"  style="overflow:visible;"/>
					</clipPath>
					<g class="st14">
						<path class="st15" d="M157,184.2c0,3.5-2.8,6.3-6.3,6.3h-7.3c-3.5,0-6.3-2.8-6.3-6.3V177c0-3.5,2.8-6.3,6.3-6.3h7.3
							c3.5,0,6.3,2.8,6.3,6.3V184.2z"/>
					</g>
				</g>
			</g>
			<g>
				<g>
					<defs>
						<path id="SVGID_15_" d="M472.8,149.1v262c0,4.3-3.7,7.8-8.2,7.8H43c-4.5,0-8.2-3.5-8.2-7.8v-262c0-4.3,3.7-7.8,8.2-7.8h421.5
							c1.2,0,2.3,0.2,3.3,0.7C470.7,143.2,472.8,145.9,472.8,149.1z"/>
					</defs>
					<clipPath id="SVGID_16_">
						<use xlink:href="#SVGID_15_"  style="overflow:visible;"/>
					</clipPath>
				</g>
			</g>
			<g>
				<g>
					<defs>
						<path id="SVGID_17_" d="M472.8,149.1v262c0,4.3-3.7,7.8-8.2,7.8H43c-4.5,0-8.2-3.5-8.2-7.8v-262c0-4.3,3.7-7.8,8.2-7.8h421.5
							c1.2,0,2.3,0.2,3.3,0.7C470.7,143.2,472.8,145.9,472.8,149.1z"/>
					</defs>
					<clipPath id="SVGID_18_">
						<use xlink:href="#SVGID_17_"  style="overflow:visible;"/>
					</clipPath>
				</g>
			</g>
			<g>
				<g>
					<defs>
						<path id="SVGID_19_" d="M472.8,149.1v262c0,4.3-3.7,7.8-8.2,7.8H43.1c-4.5,0-8.2-3.5-8.2-7.8v-262c0-4.3,3.7-7.8,8.2-7.8
							h421.5c1.2,0,2.3,0.2,3.3,0.7C470.7,143.2,472.8,145.9,472.8,149.1z"/>
					</defs>
					<clipPath id="SVGID_20_">
						<use xlink:href="#SVGID_19_"  style="overflow:visible;"/>
					</clipPath>
				</g>
			</g>
			<g>
				<g>
					<defs>
						<path id="SVGID_21_" d="M474.9,149.1v262c0,4.3-3.7,7.8-8.2,7.8H45.2c-4.5,0-8.2-3.5-8.2-7.8v-262c0-4.3,3.7-7.8,8.2-7.8
							h421.5c1.2,0,2.3,0.2,3.3,0.7C472.9,143.2,474.9,145.9,474.9,149.1z"/>
					</defs>
					<clipPath id="SVGID_22_">
						<use xlink:href="#SVGID_21_"  style="overflow:visible;"/>
					</clipPath>
					<g class="st16">
						<path class="st17" d="M219,269.7c0,2-4.1,3.6-9.1,3.6h-97.1c-5,0-9.1-1.6-9.1-3.6v-52.9c0-2,4.1-3.6,9.1-3.6h97.1
							c5,0,9.1,1.6,9.1,3.6V269.7z"/>
					</g>
					<path class="st18" d="M155,353.3h-37c-6.6,0-12-5.4-12-12v-49.2c0-6.6,5.4-12,12-12h37c6.6,0,12,5.4,12,12v49.2
						C167,347.9,161.6,353.3,155,353.3z"/>
					<path class="st19" d="M209.7,354.9h-19.3c-6.6,0-12-5.4-12-12v-50.8c0-6.6,5.4-12,12-12h19.3c6.6,0,12,5.4,12,12v50.8
						C221.7,349.5,216.3,354.9,209.7,354.9z"/>
				</g>
			</g>
			<g>
				<g>
					<defs>
						<path id="SVGID_23_" d="M472.8,149.1v262c0,4.3-3.7,7.8-8.2,7.8H43c-4.5,0-8.2-3.5-8.2-7.8v-262c0-4.3,3.7-7.8,8.2-7.8h421.5
							c1.2,0,2.3,0.2,3.3,0.7C470.7,143.2,472.8,145.9,472.8,149.1z"/>
					</defs>
					<clipPath id="SVGID_24_">
						<use xlink:href="#SVGID_23_"  style="overflow:visible;"/>
					</clipPath>
					<g class="st20">
						<path class="st21" d="M391.7,217.7c0,2.3-1.8,4.1-4.1,4.1H244.4c-2.3,0-4.1-1.8-4.1-4.1l0,0c0-2.3,1.8-4.1,4.1-4.1h143.2
							C389.9,213.6,391.7,215.5,391.7,217.7L391.7,217.7z"/>
						<path class="st22" d="M391.7,353.4c0,2.3-1.8,4.1-4.1,4.1H244.4c-2.3,0-4.1-1.8-4.1-4.1l0,0c0-2.3,1.8-4.1,4.1-4.1h143.2
							C389.9,349.3,391.7,351.1,391.7,353.4L391.7,353.4z"/>
					</g>
				</g>
			</g>
			<g>
				<g>
					<defs>
						<path id="SVGID_25_" d="M472.8,149.1v262c0,4.3-3.7,7.8-8.2,7.8H43c-4.5,0-8.2-3.5-8.2-7.8v-262c0-4.3,3.7-7.8,8.2-7.8h421.5
							c1.2,0,2.3,0.2,3.3,0.7C470.7,143.2,472.8,145.9,472.8,149.1z"/>
					</defs>
					<clipPath id="SVGID_26_">
						<use xlink:href="#SVGID_25_"  style="overflow:visible;"/>
					</clipPath>
					<g class="st23">
						<path class="st21" d="M391.7,237.2c0,2.3-1.8,4.1-4.1,4.1H244.4c-2.3,0-4.1-1.8-4.1-4.1l0,0c0-2.3,1.8-4.1,4.1-4.1h143.2
							C389.9,233,391.7,234.9,391.7,237.2L391.7,237.2z"/>
					</g>
				</g>
			</g>
			<g>
				<g>
					<defs>
						<path id="SVGID_27_" d="M472.8,149.1v262c0,4.3-3.7,7.8-8.2,7.8H43c-4.5,0-8.2-3.5-8.2-7.8v-262c0-4.3,3.7-7.8,8.2-7.8h421.5
							c1.2,0,2.3,0.2,3.3,0.7C470.7,143.2,472.8,145.9,472.8,149.1z"/>
					</defs>
					<clipPath id="SVGID_28_">
						<use xlink:href="#SVGID_27_"  style="overflow:visible;"/>
					</clipPath>
					<g class="st24">
						<path class="st21" d="M391.7,256.6c0,2.3-1.8,4.1-4.1,4.1H244.4c-2.3,0-4.1-1.8-4.1-4.1l0,0c0-2.3,1.8-4.1,4.1-4.1h143.2
							C389.9,252.5,391.7,254.3,391.7,256.6L391.7,256.6z"/>
					</g>
				</g>
			</g>
			<g>
				<g>
					<defs>
						<path id="SVGID_29_" d="M472.8,149.1v262c0,4.3-3.7,7.8-8.2,7.8H43c-4.5,0-8.2-3.5-8.2-7.8v-262c0-4.3,3.7-7.8,8.2-7.8h421.5
							c1.2,0,2.3,0.2,3.3,0.7C470.7,143.2,472.8,145.9,472.8,149.1z"/>
					</defs>
					<clipPath id="SVGID_30_">
						<use xlink:href="#SVGID_29_"  style="overflow:visible;"/>
					</clipPath>
					<g class="st25">
						<path class="st21" d="M391.7,276c0,2.3-1.8,4.1-4.1,4.1H244.4c-2.3,0-4.1-1.8-4.1-4.1l0,0c0-2.3,1.8-4.1,4.1-4.1h143.2
							C389.9,271.9,391.7,273.8,391.7,276L391.7,276z"/>
					</g>
				</g>
			</g>
			<g>
				<g>
					<defs>
						<path id="SVGID_31_" d="M472.8,149.1v262c0,4.3-3.7,7.8-8.2,7.8H43c-4.5,0-8.2-3.5-8.2-7.8v-262c0-4.3,3.7-7.8,8.2-7.8h421.5
							c1.2,0,2.3,0.2,3.3,0.7C470.7,143.2,472.8,145.9,472.8,149.1z"/>
					</defs>
					<clipPath id="SVGID_32_">
						<use xlink:href="#SVGID_31_"  style="overflow:visible;"/>
					</clipPath>
					<g class="st26">
						<path class="st21" d="M391.7,295.5c0,2.3-1.8,4.1-4.1,4.1H244.4c-2.3,0-4.1-1.8-4.1-4.1l0,0c0-2.3,1.8-4.1,4.1-4.1h143.2
							C389.9,291.4,391.7,293.2,391.7,295.5L391.7,295.5z"/>
					</g>
				</g>
			</g>
			<g>
				<g>
					<defs>
						<path id="SVGID_33_" d="M472.8,149.1v262c0,4.3-3.7,7.8-8.2,7.8H43c-4.5,0-8.2-3.5-8.2-7.8v-262c0-4.3,3.7-7.8,8.2-7.8h421.5
							c1.2,0,2.3,0.2,3.3,0.7C470.7,143.2,472.8,145.9,472.8,149.1z"/>
					</defs>
					<clipPath id="SVGID_34_">
						<use xlink:href="#SVGID_33_"  style="overflow:visible;"/>
					</clipPath>
					<g class="st27">
						<path class="st21" d="M391.7,314.9c0,2.3-1.8,4.1-4.1,4.1H244.4c-2.3,0-4.1-1.8-4.1-4.1l0,0c0-2.3,1.8-4.1,4.1-4.1h143.2
							C389.9,310.8,391.7,312.6,391.7,314.9L391.7,314.9z"/>
					</g>
				</g>
			</g>
			<g>
				<g>
					<defs>
						<path id="SVGID_35_" d="M472.8,149.1v262c0,4.3-3.7,7.8-8.2,7.8H43c-4.5,0-8.2-3.5-8.2-7.8v-262c0-4.3,3.7-7.8,8.2-7.8h421.5
							c1.2,0,2.3,0.2,3.3,0.7C470.7,143.2,472.8,145.9,472.8,149.1z"/>
					</defs>
					<clipPath id="SVGID_36_">
						<use xlink:href="#SVGID_35_"  style="overflow:visible;"/>
					</clipPath>
					<g class="st28">
						<path class="st21" d="M391.7,334.4c0,2.3-1.8,4.1-4.1,4.1H244.4c-2.3,0-4.1-1.8-4.1-4.1l0,0c0-2.3,1.8-4.1,4.1-4.1h143.2
							C389.9,330.2,391.7,332.1,391.7,334.4L391.7,334.4z"/>
					</g>
				</g>
			</g>
			<g>
				<g>
					<defs>
						<path id="SVGID_37_" d="M472.8,149.1v262c0,4.3-3.7,7.8-8.2,7.8H43c-4.5,0-8.2-3.5-8.2-7.8v-262c0-4.3,3.7-7.8,8.2-7.8h421.5
							c1.2,0,2.3,0.2,3.3,0.7C470.7,143.2,472.8,145.9,472.8,149.1z"/>
					</defs>
					<clipPath id="SVGID_38_">
						<use xlink:href="#SVGID_37_"  style="overflow:visible;"/>
					</clipPath>
					<g class="st29">
						<path class="st21" d="M393.7,368.3c0,2.3-3.6,4.1-8,4.1H108.4c-4.4,0-8-1.8-8-4.1l0,0c0-2.3,3.6-4.1,8-4.1h277.3
							C390.1,364.2,393.7,366,393.7,368.3L393.7,368.3z"/>
					</g>
				</g>
			</g>
			<g>
				<g>
					<defs>
						<path id="SVGID_39_" d="M472.8,149.1v262c0,4.3-3.7,7.8-8.2,7.8H43c-4.5,0-8.2-3.5-8.2-7.8v-262c0-4.3,3.7-7.8,8.2-7.8h421.5
							c1.2,0,2.3,0.2,3.3,0.7C470.7,143.2,472.8,145.9,472.8,149.1z"/>
					</defs>
					<clipPath id="SVGID_40_">
						<use xlink:href="#SVGID_39_"  style="overflow:visible;"/>
					</clipPath>
					<g class="st30">
						<path class="st21" d="M393.7,387.7c0,2.3-3.6,4.1-8,4.1H108.4c-4.4,0-8-1.8-8-4.1l0,0c0-2.3,3.6-4.1,8-4.1h277.3
							C390.1,383.6,393.7,385.4,393.7,387.7L393.7,387.7z"/>
					</g>
				</g>
			</g>
			<g>
				<g>
					<defs>
						<path id="SVGID_41_" d="M472.8,149.1v262c0,4.3-3.7,7.8-8.2,7.8H43c-4.5,0-8.2-3.5-8.2-7.8v-262c0-4.3,3.7-7.8,8.2-7.8h421.5
							c1.2,0,2.3,0.2,3.3,0.7C470.7,143.2,472.8,145.9,472.8,149.1z"/>
					</defs>
					<clipPath id="SVGID_42_">
						<use xlink:href="#SVGID_41_"  style="overflow:visible;"/>
					</clipPath>
					<g class="st31">
						<path class="st21" d="M393.7,407.2c0,2.3-3.6,4.1-8,4.1H108.4c-4.4,0-8-1.8-8-4.1l0,0c0-2.3,3.6-4.1,8-4.1h277.3
							C390.1,403,393.7,404.9,393.7,407.2L393.7,407.2z"/>
					</g>
				</g>
			</g>
			<g>
				<g>
					<defs>
						<path id="SVGID_43_" d="M472.8,149.1v262c0,4.3-3.7,7.8-8.2,7.8H43c-4.5,0-8.2-3.5-8.2-7.8v-262c0-4.3,3.7-7.8,8.2-7.8h421.5
							c1.2,0,2.3,0.2,3.3,0.7C470.7,143.2,472.8,145.9,472.8,149.1z"/>
					</defs>
					<clipPath id="SVGID_44_">
						<use xlink:href="#SVGID_43_"  style="overflow:visible;"/>
					</clipPath>
					<g class="st32">
						<path class="st21" d="M393.7,426.6c0,2.3-3.6,4.1-8,4.1H108.4c-4.4,0-8-1.8-8-4.1l0,0c0-2.3,3.6-4.1,8-4.1h277.3
							C390.1,422.5,393.7,424.3,393.7,426.6L393.7,426.6z"/>
					</g>
				</g>
			</g>
			<g>
				<g>
					<defs>
						<path id="SVGID_45_" d="M288.8,198.1v262c0,4.3-3.7,7.8-8.2,7.8h-421.5c-4.5,0-8.2-3.5-8.2-7.8v-262c0-4.3,3.7-7.8,8.2-7.8
							h421.5c1.2,0,2.3,0.2,3.3,0.7C286.7,192.2,288.8,194.9,288.8,198.1z"/>
					</defs>
					<clipPath id="SVGID_46_">
						<use xlink:href="#SVGID_45_"  style="overflow:visible;"/>
					</clipPath>
					<g class="st33">
						<rect x="415.5" y="164.8" class="st34" width="18.7" height="254.1"/>
					</g>
				</g>
			</g>
			<g>
				<g>
					<defs>
						<path id="SVGID_47_" d="M538,149.1v262c0,4.3-3.7,7.8-8.2,7.8H108.3c-4.5,0-8.2-3.5-8.2-7.8v-262c0-4.3,3.7-7.8,8.2-7.8h421.5
							c1.2,0,2.3,0.2,3.3,0.7C536,143.2,538,145.9,538,149.1z"/>
					</defs>
					<clipPath id="SVGID_48_">
						<use xlink:href="#SVGID_47_"  style="overflow:visible;"/>
					</clipPath>
					<path class="st35" d="M477.3,101.5v1.5L209.1,371.2h-57L429.6,93.7h39.5c1.2,0,2.3,0.2,3.3,0.7
						C475.3,95.5,477.3,98.3,477.3,101.5z"/>
				</g>
			</g>
			<g>
				<g>
					<defs>
						<path id="SVGID_49_" d="M472.8,149.1v262c0,4.3-3.7,7.8-8.2,7.8H43.1c-4.5,0-8.2-3.5-8.2-7.8v-262c0-4.3,3.7-7.8,8.2-7.8
							h421.5c1.2,0,2.3,0.2,3.3,0.7C470.7,143.2,472.8,145.9,472.8,149.1z"/>
					</defs>
					<clipPath id="SVGID_50_">
						<use xlink:href="#SVGID_49_"  style="overflow:visible;"/>
					</clipPath>
					<polygon class="st36" points="472.8,180 472.8,208.5 262.3,418.9 233.8,418.9 					"/>
				</g>
			</g>
		</g>
	</g>
</g>
</svg>
